<svg width="32" height="33" viewBox="0 0 32 33" fill="none" xmlns="http://www.w3.org/2000/svg">
<path d="M4.63537 21.3036L4.63555 21.304C5.28712 22.8149 6.16681 24.1193 7.27373 25.2262C8.38066 26.3331 9.68501 27.2128 11.1959 27.8644L11.1964 27.8646C12.6879 28.5086 14.2858 28.8333 16 28.8333C17.7142 28.8333 19.312 28.5086 20.8036 27.8646L20.804 27.8644C22.3149 27.2128 23.6193 26.3331 24.7262 25.2262C25.8331 24.1193 26.7128 22.8149 27.3644 21.304L27.3646 21.3036C28.0086 19.812 28.3333 18.2142 28.3333 16.5C28.3333 14.7858 28.0086 13.188 27.3646 11.6964L27.3644 11.696C26.7128 10.185 25.8331 8.88069 24.7262 7.77376C23.6193 6.66685 22.3149 5.7867 20.804 5.13425L4.63537 21.3036ZM4.63537 21.3036C3.99134 19.812 3.66663 18.2142 3.66663 16.5C3.66663 14.7858 3.99134 13.188 4.63537 11.6964L4.63555 11.696M4.63537 21.3036L4.63555 11.696M4.63555 11.696C5.28712 10.185 6.16681 8.88069 7.27373 7.77376M4.63555 11.696L7.27373 7.77376M7.27373 7.77376C8.38075 6.66674 9.68525 5.78654 11.1964 5.13406M7.27373 7.77376L11.1964 5.13406M11.1964 5.13406C12.6879 4.49093 14.2857 4.16666 16 4.16666M11.1964 5.13406L16 4.16666M16 4.16666C17.7142 4.16666 19.312 4.49093 20.8036 5.13406L16 4.16666Z" stroke="#BEBEBE" stroke-width="2"/>
</svg>
