<svg width="32" height="33" viewBox="0 0 32 33" fill="none" xmlns="http://www.w3.org/2000/svg">
<path d="M14.1333 22.6333L23.5333 13.2333L21.6666 11.3667L14.1333 18.9L10.3333 15.1L8.46663 16.9667L14.1333 22.6333ZM16 29.8333C14.1555 29.8333 12.4222 29.4831 10.8 28.7827C9.17774 28.0831 7.76663 27.1333 6.56663 25.9333C5.36663 24.7333 4.41685 23.3222 3.71729 21.7C3.01685 20.0778 2.66663 18.3444 2.66663 16.5C2.66663 14.6556 3.01685 12.9222 3.71729 11.3C4.41685 9.67778 5.36663 8.26667 6.56663 7.06667C7.76663 5.86667 9.17774 4.91645 10.8 4.216C12.4222 3.51645 14.1555 3.16667 16 3.16667C17.8444 3.16667 19.5777 3.51645 21.2 4.216C22.8222 4.91645 24.2333 5.86667 25.4333 7.06667C26.6333 8.26667 27.5831 9.67778 28.2826 11.3C28.9831 12.9222 29.3333 14.6556 29.3333 16.5C29.3333 18.3444 28.9831 20.0778 28.2826 21.7C27.5831 23.3222 26.6333 24.7333 25.4333 25.9333C24.2333 27.1333 22.8222 28.0831 21.2 28.7827C19.5777 29.4831 17.8444 29.8333 16 29.8333Z" fill="#47BA68"/>
</svg>
