<svg width="32" height="33" viewBox="0 0 32 33" fill="none" xmlns="http://www.w3.org/2000/svg">
<path d="M4.63537 21.3036L4.63555 21.304C5.28712 22.815 6.16681 24.1193 7.27373 25.2262C8.38066 26.3331 9.68501 27.2128 11.1959 27.8644L11.1964 27.8646C12.6879 28.5086 14.2858 28.8333 16 28.8333C17.7142 28.8333 19.312 28.5086 20.8036 27.8646L20.804 27.8644C22.3149 27.2128 23.6193 26.3331 24.7262 25.2262C25.8331 24.1193 26.7128 22.815 27.3644 21.304L27.3646 21.3036C28.0086 19.812 28.3333 18.2142 28.3333 16.5C28.3333 14.7858 28.0086 13.188 27.3646 11.6964L27.3644 11.696C26.7128 10.185 25.8331 8.88069 24.7262 7.77377C23.6193 6.66686 22.3149 5.78671 20.804 5.13426L4.63537 21.3036ZM4.63537 21.3036C3.99134 19.812 3.66663 18.2142 3.66663 16.5C3.66663 14.7858 3.99134 13.188 4.63537 11.6964L4.63555 11.696M4.63537 21.3036L4.63555 11.696M4.63555 11.696C5.28712 10.185 6.16681 8.88069 7.27373 7.77377M4.63555 11.696L7.27373 7.77377M7.27373 7.77377C8.38075 6.66675 9.68525 5.78654 11.1964 5.13407M7.27373 7.77377L11.1964 5.13407M11.1964 5.13407C12.6879 4.49094 14.2857 4.16666 16 4.16666M11.1964 5.13407L16 4.16666M16 4.16666C17.7142 4.16666 19.312 4.49094 20.8036 5.13407L16 4.16666Z" stroke="#BEBEBE" stroke-width="2"/>
<path d="M16 24.5C14.8933 24.5 13.8533 24.2899 12.88 23.8696C11.9067 23.4499 11.06 22.88 10.34 22.16C9.62 21.44 9.05013 20.5933 8.6304 19.62C8.21013 18.6467 8 17.6067 8 16.5C8 15.3933 8.21013 14.3533 8.6304 13.38C9.05013 12.4067 9.62 11.56 10.34 10.84C11.06 10.12 11.9067 9.54987 12.88 9.1296C13.8533 8.70987 14.8933 8.5 16 8.5C17.1067 8.5 18.1467 8.70987 19.12 9.1296C20.0933 9.54987 20.94 10.12 21.66 10.84C22.38 11.56 22.9499 12.4067 23.3696 13.38C23.7899 14.3533 24 15.3933 24 16.5C24 17.6067 23.7899 18.6467 23.3696 19.62C22.9499 20.5933 22.38 21.44 21.66 22.16C20.94 22.88 20.0933 23.4499 19.12 23.8696C18.1467 24.2899 17.1067 24.5 16 24.5Z" fill="#BEBEBE"/>
</svg>
